{
  "accessors": [
    {
      "bufferView": 1,
      "componentType": 5126,
      "count": 906,
      "max": [
        1.1291799545288086,
        1.1291799545288086,
        0.7066100239753723
      ],
      "min": [
        -1.1291799545288086,
        -1.1291799545288086,
        -0.9961599707603455
      ],
      "type": "VEC3"
    },
    {
      "bufferView": 1,
      "byteOffset": 10872,
      "componentType": 5126,
      "count": 906,
      "max": [
        1.0,
        1.0,
        1.0
      ],
      "min": [
        -1.0,
        -1.0,
        -1.0
      ],
      "type": "VEC3"
    },
    {
      "bufferView": 0,
      "componentType": 5125,
      "count": 1908,
      "type": "SCALAR"
    },
    {
      "bufferView": 1,
      "byteOffset": 21744,
      "componentType": 5126,
      "count": 639,
      "max": [
        1.0983699560165405,
        1.0983699560165405,
        1.0538300275802612
      ],
      "min": [
        -1.0983699560165405,
        -1.0983699560165405,
        -1.0
      ],
      "type": "VEC3"
    },
    {
      "bufferView": 1,
      "byteOffset": 29412,
      "componentType": 5126,
      "count": 639,
      "max": [
        1.0,
        1.0,
        1.0
      ],
      "min": [
        -1.0,
        -1.0,
        -1.0
      ],
      "type": "VEC3"
    },
    {
      "bufferView": 0,
      "byteOffset": 7632,
      "componentType": 5125,
      "count": 1758,
      "type": "SCALAR"
    },
    {
      "bufferView": 1,
      "byteOffset": 37080,
      "componentType": 5126,
      "count": 845,
      "max": [
        8.417969703674316,
        2.216010093688965,
        10.686249732971191
      ],
      "min": [
        -12.026289939880371,
        -2.2226200103759766,
        -4.514410018920898
      ],
      "type": "VEC3"
    },
    {
      "bufferView": 1,
      "byteOffset": 47220,
      "componentType": 5126,
      "count": 845,
      "max": [
        0.9821649789810181,
        1.0,
        0.9460084438323975
      ],
      "min": [
        -0.9915697574615479,
        -1.0,
        -0.9922764301300049
      ],
      "type": "VEC3"
    },
    {
      "bufferView": 0,
      "byteOffset": 14664,
      "componentType": 5125,
      "count": 999,
      "type": "SCALAR"
    },
    {
      "bufferView": 1,
      "byteOffset": 57360,
      "componentType": 5126,
      "count": 805,
      "max": [
        7.31859016418457,
        2.8245298862457275,
        8.217379570007324
      ],
      "min": [
        -11.813949584960938,
        -6.111999988555908,
        -5.093760013580322
      ],
      "type": "VEC3"
    },
    {
      "bufferView": 1,
      "byteOffset": 67020,
      "componentType": 5126,
      "count": 805,
      "max": [
        0.9911677241325378,
        0.992673933506012,
        0.9864756464958191
      ],
      "min": [
        -0.9734160900115967,
        -0.9655382633209229,
        -0.9859368205070496
      ],
      "type": "VEC3"
    },
    {
      "bufferView": 0,
      "byteOffset": 18660,
      "componentType": 5125,
      "count": 939,
      "type": "SCALAR"
    },
    {
      "bufferView": 1,
      "byteOffset": 76680,
      "componentType": 5126,
      "count": 433,
      "max": [
        1.391569972038269,
        1.6263400316238403,
        4.050320148468018
      ],
      "min": [
        -1.391569972038269,
        -1.6553900241851807,
        -1.5523899793624878
      ],
      "type": "VEC3"
    },
    {
      "bufferView": 1,
      "byteOffset": 81876,
      "componentType": 5126,
      "count": 433,
      "max": [
        0.9792738556861877,
        0.9927968978881836,
        1.0
      ],
      "min": [
        -0.9792738556861877,
        -0.9927968978881836,
        -0.9967424869537354
      ],
      "type": "VEC3"
    },
    {
      "bufferView": 0,
      "byteOffset": 22416,
      "componentType": 5125,
      "count": 684,
      "type": "SCALAR"
    },
    {
      "bufferView": 1,
      "byteOffset": 87072,
      "componentType": 5126,
      "count": 150,
      "max": [
        1.5227700471878052,
        1.0465699434280396,
        2.064160108566284
      ],
      "min": [
        -1.5227700471878052,
        -2.014849901199341,
        -1.0
      ],
      "type": "VEC3"
    },
    {
      "bufferView": 1,
      "byteOffset": 88872,
      "componentType": 5126,
      "count": 150,
      "max": [
        0.9910596609115601,
        0.9178661704063416,
        0.9976224899291992
      ],
      "min": [
        -0.9910596609115601,
        -0.8722781538963318,
        -1.0
      ],
      "type": "VEC3"
    },
    {
      "bufferView": 0,
      "byteOffset": 25152,
      "componentType": 5125,
      "count": 192,
      "type": "SCALAR"
    },
    {
      "bufferView": 1,
      "byteOffset": 90672,
      "componentType": 5126,
      "count": 350,
      "max": [
        1.0366400480270386,
        1.7115000486373901,
        3.557229995727539
      ],
      "min": [
        -1.0366400480270386,
        -0.6132500171661377,
        1.8981000185012817
      ],
      "type": "VEC3"
    },
    {
      "bufferView": 1,
      "byteOffset": 94872,
      "componentType": 5126,
      "count": 350,
      "max": [
        0.9560444951057434,
        0.8814084529876709,
        0.885370135307312
      ],
      "min": [
        -0.9560444951057434,
        -0.8370389342308044,
        -0.9357130527496338
      ],
      "type": "VEC3"
    },
    {
      "bufferView": 0,
      "byteOffset": 25920,
      "componentType": 5125,
      "count": 504,
      "type": "SCALAR"
    },
    {
      "bufferView": 1,
      "byteOffset": 99072,
      "componentType": 5126,
      "count": 1396,
      "max": [
        2.605639934539795,
        1.0344699621200562,
        1.2976100444793701
      ],
      "min": [
        -4.9262800216674805,
        -4.035920143127441,
        -3.298909902572632
      ],
      "type": "VEC3"
    },
    {
      "bufferView": 1,
      "byteOffset": 115824,
      "componentType": 5126,
      "count": 1396,
      "max": [
        0.9970797896385193,
        0.9935582280158997,
        0.9998615384101868
      ],
      "min": [
        -0.9509965777397156,
        -0.9989948868751526,
        -0.9987027645111084
      ],
      "type": "VEC3"
    },
    {
      "bufferView": 0,
      "byteOffset": 27936,
      "componentType": 5125,
      "count": 1710,
      "type": "SCALAR"
    },
    {
      "bufferView": 1,
      "byteOffset": 132576,
      "componentType": 5126,
      "count": 1342,
      "max": [
        10.162500381469727,
        -0.6520900130271912,
        8.586649894714355
      ],
      "min": [
        -0.3793700039386749,
        -12.534919738769531,
        1.8455400466918945
      ],
      "type": "VEC3"
    },
    {
      "bufferView": 1,
      "byteOffset": 148680,
      "componentType": 5126,
      "count": 1342,
      "max": [
        0.9663156270980835,
        0.9913457632064819,
        0.9861757755279541
      ],
      "min": [
        -0.9669637084007263,
        -0.9126189351081848,
        -0.9980698823928833
      ],
      "type": "VEC3"
    },
    {
      "bufferView": 0,
      "byteOffset": 34776,
      "componentType": 5125,
      "count": 1632,
      "type": "SCALAR"
    },
    {
      "bufferView": 1,
      "byteOffset": 164784,
      "componentType": 5126,
      "count": 707,
      "max": [
        5.5135498046875,
        69.0961685180664,
        10.512359619140625
      ],
      "min": [
        -5.575570106506348,
        -45.17913055419922,
        -11.768699645996094
      ],
      "type": "VEC3"
    },
    {
      "bufferView": 1,
      "byteOffset": 173268,
      "componentType": 5126,
      "count": 707,
      "max": [
        1.0,
        1.0,
        1.0
      ],
      "min": [
        -1.0,
        -1.0,
        -1.0
      ],
      "type": "VEC3"
    },
    {
      "bufferView": 0,
      "byteOffset": 41304,
      "componentType": 5125,
      "count": 2286,
      "type": "SCALAR"
    },
    {
      "bufferView": 1,
      "byteOffset": 181752,
      "componentType": 5126,
      "count": 83,
      "max": [
        6.086820125579834,
        1.993939995765686,
        1.55594003200531
      ],
      "min": [
        -46.53218078613281,
        -3.5782299041748047,
        -30.427900314331055
      ],
      "type": "VEC3"
    },
    {
      "bufferView": 1,
      "byteOffset": 182748,
      "componentType": 5126,
      "count": 83,
      "max": [
        0.7284120917320251,
        0.9143458604812622,
        0.9989683032035828
      ],
      "min": [
        -0.7412837147712708,
        -0.9059731960296631,
        -0.987409770488739
      ],
      "type": "VEC3"
    },
    {
      "bufferView": 0,
      "byteOffset": 50448,
      "componentType": 5125,
      "count": 117,
      "type": "SCALAR"
    },
    {
      "bufferView": 1,
      "byteOffset": 183744,
      "componentType": 5126,
      "count": 229,
      "max": [
        1.067389965057373,
        1.0369999408721924,
        1.2289600372314453
      ],
      "min": [
        -1.067389965057373,
        -1.6145299673080444,
        -2.686110019683838
      ],
      "type": "VEC3"
    },
    {
      "bufferView": 1,
      "byteOffset": 186492,
      "componentType": 5126,
      "count": 229,
      "max": [
        0.9977984428405762,
        0.9995153546333313,
        0.9720284938812256
      ],
      "min": [
        -0.9977984428405762,
        -0.99100661277771,
        -1.0
      ],
      "type": "VEC3"
    },
    {
      "bufferView": 0,
      "byteOffset": 50916,
      "componentType": 5125,
      "count": 336,
      "type": "SCALAR"
    }
  ],
  "asset": {
    "extras": {
      "author": "paulhoekstra (https://sketchfab.com/paulhoekstra)",
      "license": "CC-BY-4.0 (http://creativecommons.org/licenses/by/4.0/)",
      "source": "https://sketchfab.com/3d-models/the-watcher-191e8d6b334e48e59362472ba52c9ab3",
      "title": "The Watcher"
    },
    "generator": "Sketchfab-12.68.0",
    "version": "2.0"
  },
  "bufferViews": [
    {
      "buffer": 0,
      "byteLength": 52260,
      "name": "floatBufferViews",
      "target": 34963
    },
    {
      "buffer": 0,
      "byteLength": 189240,
      "byteOffset": 52260,
      "byteStride": 12,
      "name": "floatBufferViews",
      "target": 34962
    }
  ],
  "buffers": [
    {
      "byteLength": 241500,
      "uri": "scene.bin"
    }
  ],
  "materials": [
    {
      "doubleSided": true,
      "name": "Root",
      "pbrMetallicRoughness": {
        "metallicFactor": 0.0,
        "roughnessFactor": 0.6
      }
    },
    {
      "doubleSided": true,
      "name": "Material.002",
      "pbrMetallicRoughness": {
        "metallicFactor": 0.0,
        "roughnessFactor": 0.6
      }
    },
    {
      "doubleSided": true,
      "name": "Material.001",
      "pbrMetallicRoughness": {
        "baseColorFactor": [
          1.0,
          0.0,
          0.0,
          1.0
        ],
        "metallicFactor": 0.0,
        "roughnessFactor": 0.6
      }
    },
    {
      "doubleSided": true,
      "name": "Material",
      "pbrMetallicRoughness": {
        "baseColorFactor": [
          0.6400000190400001,
          0.6400000190400001,
          0.6400000190400001,
          1.0
        ],
        "metallicFactor": 0.0,
        "roughnessFactor": 0.6
      }
    }
  ],
  "meshes": [
    {
      "name": "Cube_0",
      "primitives": [
        {
          "attributes": {
            "NORMAL": 1,
            "POSITION": 0
          },
          "indices": 2,
          "material": 3,
          "mode": 4
        }
      ]
    },
    {
      "name": "Cube.001_0",
      "primitives": [
        {
          "attributes": {
            "NORMAL": 4,
            "POSITION": 3
          },
          "indices": 5,
          "material": 0,
          "mode": 4
        }
      ]
    },
    {
      "name": "Cube.004_0",
      "primitives": [
        {
          "attributes": {
            "NORMAL": 7,
            "POSITION": 6
          },
          "indices": 8,
          "material": 1,
          "mode": 4
        }
      ]
    },
    {
      "name": "Cube.012_0",
      "primitives": [
        {
          "attributes": {
            "NORMAL": 10,
            "POSITION": 9
          },
          "indices": 11,
          "material": 1,
          "mode": 4
        }
      ]
    },
    {
      "name": "Cube.006_0",
      "primitives": [
        {
          "attributes": {
            "NORMAL": 13,
            "POSITION": 12
          },
          "indices": 14,
          "material": 1,
          "mode": 4
        }
      ]
    },
    {
      "name": "Cube.009_0",
      "primitives": [
        {
          "attributes": {
            "NORMAL": 16,
            "POSITION": 15
          },
          "indices": 17,
          "material": 1,
          "mode": 4
        }
      ]
    },
    {
      "name": "Cube.010_0",
      "primitives": [
        {
          "attributes": {
            "NORMAL": 19,
            "POSITION": 18
          },
          "indices": 20,
          "material": 1,
          "mode": 4
        }
      ]
    },
    {
      "name": "Cube.011_0",
      "primitives": [
        {
          "attributes": {
            "NORMAL": 22,
            "POSITION": 21
          },
          "indices": 23,
          "material": 1,
          "mode": 4
        }
      ]
    },
    {
      "name": "Cube.013_0",
      "primitives": [
        {
          "attributes": {
            "NORMAL": 25,
            "POSITION": 24
          },
          "indices": 26,
          "material": 1,
          "mode": 4
        }
      ]
    },
    {
      "name": "Cube.020_0",
      "primitives": [
        {
          "attributes": {
            "NORMAL": 28,
            "POSITION": 27
          },
          "indices": 29,
          "material": 1,
          "mode": 4
        }
      ]
    },
    {
      "name": "Plane.002_0",
      "primitives": [
        {
          "attributes": {
            "NORMAL": 31,
            "POSITION": 30
          },
          "indices": 32,
          "material": 2,
          "mode": 4
        }
      ]
    },
    {
      "name": "Cube.014_0",
      "primitives": [
        {
          "attributes": {
            "NORMAL": 34,
            "POSITION": 33
          },
          "indices": 35,
          "material": 1,
          "mode": 4
        }
      ]
    }
  ],
  "nodes": [
    {
      "children": [
        1
      ],
      "matrix": [
        1.0,
        0.0,
        0.0,
        0.0,
        0.0,
        0.0036255407612773016,
        -0.9999934434890747,
        0.0,
        0.0,
        0.9999934434890747,
        0.0036255407612773016,
        0.0,
        0.0,
        0.0005563921877183048,
        -0.01263897679746151,
        1.0
      ],
      "name": "Sketchfab_model"
    },
    {
      "children": [
        2,
        4,
        6,
        8,
        10,
        12,
        14,
        16,
        18,
        20,
        22,
        24,
        26,
        28
      ],
      "name": "Root"
    },
    {
      "children": [
        3
      ],
      "matrix": [
        0.56726,
        0.0,
        0.0,
        0.0,
        0.0,
        0.56726,
        0.0,
        0.0,
        0.0,
        0.0,
        0.56726,
        0.0,
        0.0,
        0.0,
        3.0793999999999997,
        1.0
      ],
      "name": "Cube"
    },
    {
      "mesh": 0,
      "name": "Cube_0"
    },
    {
      "children": [
        5
      ],
      "matrix": [
        0.31801000000000007,
        0.0,
        0.0,
        0.0,
        0.0,
        0.31801000000000007,
        0.0,
        0.0,
        0.0,
        0.0,
        1.30321,
        0.0,
        0.0,
        0.0,
        1.2510899999999998,
        1.0
      ],
      "name": "Cube.001"
    },
    {
      "mesh": 1,
      "name": "Cube.001_0"
    },
    {
      "children": [
        7
      ],
      "matrix": [
        -0.015010000000000003,
        0.036070000000000005,
        -0.05292000000000001,
        0.0,
        -0.07933000000000001,
        -0.03301000000000001,
        0.0,
        0.0,
        -0.020330000000000004,
        0.04886000000000001,
        0.03907000000000001,
        0.0,
        0.29119,
        -0.16451000000000005,
        3.9489900000000002,
        1.0
      ],
      "name": "Cube.004"
    },
    {
      "mesh": 2,
      "name": "Cube.004_0"
    },
    {
      "children": [
        9
      ],
      "matrix": [
        -0.013290000000000003,
        0.03674,
        -0.05292000000000001,
        0.0,
        -0.08080000000000001,
        -0.029220000000000003,
        0.0,
        0.0,
        -0.018000000000000002,
        0.049760000000000006,
        0.03907000000000001,
        0.0,
        -0.46716,
        -0.16895000000000004,
        3.9489900000000002,
        1.0
      ],
      "name": "Cube.012"
    },
    {
      "mesh": 3,
      "name": "Cube.012_0"
    },
    {
      "children": [
        11
      ],
      "matrix": [
        0.24435,
        0.0,
        -0.0,
        0.0,
        -0.0,
        0.12913,
        -0.0025500000000000006,
        0.0,
        0.0,
        0.003110000000000001,
        0.15770000000000003,
        0.0,
        -0.017050000000000006,
        0.22299000000000005,
        4.5554499999999996,
        1.0
      ],
      "name": "Cube.006"
    },
    {
      "mesh": 4,
      "name": "Cube.006_0"
    },
    {
      "children": [
        13
      ],
      "matrix": [
        0.27346000000000004,
        0.0,
        -0.0,
        0.0,
        0.0,
        0.13685,
        0.09653000000000003,
        0.0,
        0.0,
        -0.15761000000000003,
        0.22346000000000005,
        0.0,
        -0.014850000000000002,
        0.03385000000000001,
        5.27254,
        1.0
      ],
      "name": "Cube.009"
    },
    {
      "mesh": 5,
      "name": "Cube.009_0"
    },
    {
      "children": [
        15
      ],
      "matrix": [
        0.17371000000000003,
        0.0,
        -0.0,
        0.0,
        -0.0,
        0.13494000000000003,
        0.021640000000000003,
        0.0,
        0.0,
        -0.026420000000000006,
        0.16480000000000003,
        0.0,
        -0.017050000000000006,
        -0.48245000000000005,
        5.2115,
        1.0
      ],
      "name": "Cube.010"
    },
    {
      "mesh": 6,
      "name": "Cube.010_0"
    },
    {
      "children": [
        17
      ],
      "matrix": [
        0.08864000000000002,
        -0.0017100000000000006,
        -0.0012800000000000003,
        0.0,
        0.0014500000000000003,
        0.08720000000000003,
        -0.015960000000000005,
        0.0,
        0.006000000000000002,
        0.06115000000000002,
        0.3345600000000001,
        0.0,
        0.44224,
        -0.29594000000000004,
        5.212949999999999,
        1.0
      ],
      "name": "Cube.011"
    },
    {
      "mesh": 7,
      "name": "Cube.011_0"
    },
    {
      "children": [
        19
      ],
      "matrix": [
        0.08108000000000001,
        -0.04052000000000001,
        -0.028010000000000004,
        0.0,
        0.04458000000000001,
        0.08330000000000001,
        0.008550000000000002,
        0.0,
        0.020950000000000007,
        -0.020470000000000006,
        0.09023000000000003,
        0.0,
        -0.5821900000000001,
        0.07645,
        4.930200000000001,
        1.0
      ],
      "name": "Cube.013"
    },
    {
      "mesh": 8,
      "name": "Cube.013_0"
    },
    {
      "children": [
        21
      ],
      "matrix": [
        0.03362000000000001,
        -0.0,
        0.008290000000000002,
        0.0,
        -0.0038500000000000014,
        0.030660000000000007,
        0.015620000000000002,
        0.0,
        -0.007340000000000002,
        -0.016090000000000004,
        0.029770000000000005,
        0.0,
        -0.30357000000000006,
        -0.5239,
        5.5869,
        1.0
      ],
      "name": "Cube.020"
    },
    {
      "mesh": 9,
      "name": "Cube.020_0"
    },
    {
      "children": [
        23
      ],
      "matrix": [
        -0.037200000000000004,
        0.011110000000000002,
        0.012130000000000002,
        0.0,
        0.016440000000000003,
        0.03429000000000001,
        0.019030000000000002,
        0.0,
        0.004810000000000001,
        -0.021340000000000005,
        0.03429000000000001,
        0.0,
        -0.30457000000000006,
        0.8992200000000001,
        6.253240000000001,
        1.0
      ],
      "name": "Plane.002"
    },
    {
      "mesh": 10,
      "name": "Plane.002_0"
    },
    {
      "children": [
        25
      ],
      "matrix": [
        0.14088,
        0.0,
        0.0,
        0.0,
        0.0,
        0.12505,
        0.017990000000000006,
        0.0,
        0.0,
        -0.017990000000000006,
        0.12505,
        0.0,
        -0.007210000000000001,
        -0.56153,
        5.918620000000001,
        1.0
      ],
      "name": "Cube.014"
    },
    {
      "mesh": 11,
      "name": "Cube.014_0"
    },
    {
      "children": [
        27
      ],
      "matrix": [
        -0.08993000000000002,
        0.92752,
        -0.36278000000000005,
        0.0,
        -0.07097,
        0.35736000000000007,
        0.93127,
        0.0,
        0.99342,
        0.10949000000000002,
        0.03369000000000001,
        0.0,
        25.67624,
        2.5476300000000003,
        6.04668,
        1.0
      ],
      "name": "Spot.002"
    },
    {
      "name": "Spot.002"
    },
    {
      "children": [
        29
      ],
      "matrix": [
        0.92734,
        0.04825000000000001,
        0.37111000000000005,
        0.0,
        -0.37193000000000004,
        0.008910000000000001,
        0.92822,
        0.0,
        0.04148,
        -0.9988,
        0.026200000000000005,
        0.0,
        -4.79363,
        -20.768489999999996,
        6.046670000000001,
        1.0
      ],
      "name": "Spot.003"
    },
    {
      "name": "Spot.003"
    }
  ],
  "scene": 0,
  "scenes": [
    {
      "name": "Sketchfab_Scene",
      "nodes": [
        0
      ]
    }
  ]
}
